<svg width="24" height="24" viewBox="0 0 24 24" fill="none" xmlns="http://www.w3.org/2000/svg">
    <path d="M16.7143 6.64284V5.35713C16.7143 5.23927 16.6179 5.14284 16.5 5.14284H6.21428C6.09643 5.14284 6 5.23927 6 5.35713V6.64284C6 6.7607 6.09643 6.85713 6.21428 6.85713H16.5C16.6179 6.85713 16.7143 6.7607 16.7143 6.64284ZM6.21428 8.99998C6.09643 8.99998 6 9.09641 6 9.21427V10.5C6 10.6178 6.09643 10.7143 6.21428 10.7143H11.1429C11.2607 10.7143 11.3571 10.6178 11.3571 10.5V9.21427C11.3571 9.09641 11.2607 8.99998 11.1429 8.99998H6.21428ZM16.2857 12.1071C13.0902 12.1071 10.5 14.6973 10.5 17.8928C10.5 21.0884 13.0902 23.6786 16.2857 23.6786C19.4812 23.6786 22.0714 21.0884 22.0714 17.8928C22.0714 14.6973 19.4812 12.1071 16.2857 12.1071ZM19.1652 20.7723C18.3964 21.5411 17.3732 21.9643 16.2857 21.9643C15.1982 21.9643 14.175 21.5411 13.4062 20.7723C12.6375 20.0036 12.2143 18.9803 12.2143 17.8928C12.2143 16.8053 12.6375 15.7821 13.4062 15.0134C14.175 14.2446 15.1982 13.8214 16.2857 13.8214C17.3732 13.8214 18.3964 14.2446 19.1652 15.0134C19.9339 15.7821 20.3571 16.8053 20.3571 17.8928C20.3571 18.9803 19.9339 20.0036 19.1652 20.7723ZM18.6696 15.8571H17.483C17.4134 15.8571 17.3491 15.8893 17.3089 15.9455L15.608 18.2973L14.9893 17.4428C14.9695 17.4152 14.9433 17.3928 14.913 17.3774C14.8827 17.362 14.8492 17.3542 14.8152 17.3544H13.6339C13.4598 17.3544 13.358 17.5527 13.4598 17.6946L15.4366 20.4294C15.5223 20.5473 15.6964 20.5473 15.7821 20.4294L18.8411 16.1973C18.9455 16.0553 18.8437 15.8571 18.6696 15.8571ZM10.0714 21.1071H3.85714V2.24998H18.8571V11.4643C18.8571 11.5821 18.9536 11.6786 19.0714 11.6786H20.5714C20.6893 11.6786 20.7857 11.5821 20.7857 11.4643V1.17855C20.7857 0.704447 20.4027 0.321411 19.9286 0.321411H2.78571C2.31161 0.321411 1.92857 0.704447 1.92857 1.17855V22.1786C1.92857 22.6527 2.31161 23.0357 2.78571 23.0357H10.0714C10.1893 23.0357 10.2857 22.9393 10.2857 22.8214V21.3214C10.2857 21.2036 10.1893 21.1071 10.0714 21.1071Z"
          fill="currentColor"/>
</svg>
