<svg width="24" height="24" viewBox="0 0 24 24" fill="none" xmlns="http://www.w3.org/2000/svg">
    <path d="M12.6455 5.59821H11.3572C11.2393 5.59821 11.1429 5.69464 11.1429 5.8125V13.1866C11.1429 13.2562 11.175 13.3205 11.2313 13.3607L15.6589 16.5938C15.7554 16.6634 15.8893 16.6446 15.9589 16.5482L16.725 15.5036C16.7973 15.4045 16.7759 15.2705 16.6795 15.2036L12.8598 12.442V5.8125C12.8598 5.69464 12.7634 5.59821 12.6455 5.59821ZM18.533 7.6125L22.733 8.63839C22.867 8.67054 22.9982 8.56875 22.9982 8.43214L23.0197 4.10625C23.0197 3.92679 22.8134 3.825 22.6741 3.9375L18.4527 7.23482C18.4208 7.2595 18.3965 7.29269 18.3826 7.33056C18.3687 7.36843 18.3658 7.40945 18.3742 7.44891C18.3826 7.48836 18.402 7.52464 18.4301 7.55358C18.4582 7.58252 18.4939 7.60295 18.533 7.6125ZM23.025 15.6777L21.5063 15.1554C21.4533 15.1372 21.3954 15.1405 21.3448 15.1645C21.2942 15.1886 21.2551 15.2314 21.2357 15.2839C21.1848 15.4205 21.1313 15.5545 21.075 15.6884C20.5982 16.8161 19.9152 17.8313 19.042 18.7018C18.1785 19.568 17.1551 20.2584 16.0286 20.7348C14.8616 21.2282 13.6072 21.4815 12.3402 21.4795C11.0598 21.4795 9.81965 21.2304 8.6518 20.7348C7.5253 20.2584 6.50192 19.568 5.6384 18.7018C4.76787 17.8313 4.08483 16.8161 3.60537 15.6884C3.1147 14.5208 2.86331 13.2665 2.86608 12C2.86608 10.7196 3.11519 9.47679 3.61073 8.30893C4.08751 7.18125 4.77055 6.16607 5.64376 5.29554C6.50728 4.42934 7.53065 3.7389 8.65715 3.2625C9.81965 2.76696 11.0625 2.51786 12.3429 2.51786C13.6232 2.51786 14.8634 2.76696 16.0313 3.2625C17.1578 3.7389 18.1811 4.42934 19.0447 5.29554C19.3179 5.57143 19.575 5.85804 19.8107 6.16071L21.4125 4.90714C19.3045 2.2125 16.0232 0.479464 12.3375 0.482143C5.91965 0.484821 0.766082 5.69732 0.830368 12.1179C0.894654 18.4259 6.02412 23.5179 12.3429 23.5179C17.3116 23.5179 21.5438 20.3679 23.1563 15.9563C23.1964 15.8438 23.1375 15.7179 23.025 15.6777Z"
          fill="currentColor"/>
</svg>
