<svg width="24" height="24" viewBox="0 0 24 24" fill="none" xmlns="http://www.w3.org/2000/svg">
    <path d="M15.4765 6.85457L12.5557 3.92792L15.4765 1L18.396 3.92792L15.4765 6.85457ZM21.8565
    10.692L20.2117 9.04444L21.8565 7.39564L23.5 9.04444L21.8565 10.692ZM12.1117 24C10.5056 24 8.99862
    23.696 7.59076 23.088C6.1829 22.48 4.95283 21.6481 3.90055 20.5924C2.84828 19.5367 2.01845 18.3032
    1.41107 16.8919C0.803689 15.4806 0.5 13.9699 0.5 12.3599C0.5 9.8699 1.21456 7.62503 2.64369 5.62533C4.07282
    3.62562 5.9596 2.23137 8.30405 1.44258C8.21558 3.43802 8.52055 5.35714 9.21895 7.19993C9.9165 9.04273 10.9713
    10.6715 12.3834 12.0862C13.7956 13.5018 15.4203 14.5596 17.2578 15.2597C19.0952 15.9598 21.0101 16.2655 23.0024
    16.1769C22.2197 18.5253 20.8297 20.4163 18.8324 21.8498C16.835 23.2833 14.5948 24 12.1117 24ZM12.1117
    22.7209C13.9831 22.7209 15.7164 22.2519 17.3114 21.3138C18.9064 20.3758 20.1611 19.086 21.0756 17.4445C19.2466
    17.2739 17.5134 16.8062 15.8759 16.0413C14.2383 15.2763 12.7709 14.2437 11.4736 12.9432C10.1764 11.6428 9.14494
    10.176 8.37933 8.54302C7.61373 6.91 7.1565 5.17635 7.00763 3.34208C5.37009 4.25879 4.08898 5.52214 3.1643
    7.13214C2.23962 8.74214 1.77686 10.4847 1.77601 12.3599C1.77601 15.238 2.78107 17.6845 4.79121 19.6996C6.80134
    21.7146 9.24149 22.7217 12.1117 22.7209Z"
          fill="currentColor"/>
</svg>
