<svg width="24" height="25" viewBox="0 0 24 25" fill="none" xmlns="http://www.w3.org/2000/svg">
    <path d="M5.25 6.153C5.25 5.297 6.167 4.755 6.917 5.167L18.457 11.514C18.6336 11.611 18.781 11.7537 18.8836 11.9272C18.9862 12.1006 19.0403 12.2985 19.0403 12.5C19.0403 12.7015 18.9862 12.8994 18.8836 13.0728C18.781 13.2463 18.6336 13.389 18.457 13.486L6.917 19.833C6.74569 19.9272 6.55278 19.9751 6.35731 19.972C6.16184 19.969 5.97054 19.915 5.80227 19.8155C5.634 19.7159 5.49457 19.5743 5.39773 19.4045C5.30089 19.2346 5.24997 19.0425 5.25 18.847V6.153Z"
          stroke="currentColor" stroke-width="1.5" stroke-linecap="round" stroke-linejoin="round"/>
</svg>
