<svg width="24" height="25" viewBox="0 0 24 25" fill="none" xmlns="http://www.w3.org/2000/svg">
    <path d="M12.1223 23.5C9.01762 23.5 6.38745 22.4351 4.23184 20.3053C2.07728 18.1744 1 15.5742
    1 12.5047C1 9.43519 2.07728 6.83395 4.23184 4.701C6.38639 2.56805 9.01656 1.50105 12.1223
    1.5C14.011 1.5 15.7795 1.94367 17.4277 2.831C19.0749 3.71833 20.4027 4.95714 21.4111
    6.54743V1.5H23V9.71857H14.69V8.14714H20.569C19.7406 6.58095 18.5765 5.34319 17.0766 4.43386C15.5766
    3.52452 13.9252 3.07038 12.1223 3.07143C9.47417 3.07143 7.22322 3.9881 5.36949 5.82143C3.51577 7.65476
    2.58891 9.88095 2.58891 12.5C2.58891 15.119 3.51577 17.3452 5.36949 19.1786C7.22322 21.0119 9.47417
    21.9286 12.1223 21.9286C14.1614 21.9286 16.0019 21.3524 17.6438 20.2C19.2857 19.0476 20.4376 17.5286
    21.0997 15.6429H22.7871C22.0858 17.9958 20.7543 19.8936 18.7926 21.3361C16.8308 22.7787 14.6074 23.5 12.1223 23.5Z"
          fill="currentColor"/>
</svg>
