<svg width="24" height="24" viewBox="0 0 24 24" fill="none" xmlns="http://www.w3.org/2000/svg">
    <path d="M22.0714 19.5H3.64286V2.78572C3.64286 2.66786 3.54643 2.57143 3.42857 2.57143H1.92857C1.81072 2.57143 1.71429 2.66786 1.71429 2.78572V21.2143C1.71429 21.3321 1.81072 21.4286 1.92857 21.4286H22.0714C22.1893 21.4286 22.2857 21.3321 22.2857 21.2143V19.7143C22.2857 19.5964 22.1893 19.5 22.0714 19.5ZM6 17.3571H7.5C7.61786 17.3571 7.71429 17.2607 7.71429 17.1429V13.2857C7.71429 13.1679 7.61786 13.0714 7.5 13.0714H6C5.88214 13.0714 5.78572 13.1679 5.78572 13.2857V17.1429C5.78572 17.2607 5.88214 17.3571 6 17.3571ZM10.0714 17.3571H11.5714C11.6893 17.3571 11.7857 17.2607 11.7857 17.1429V8.57143C11.7857 8.45357 11.6893 8.35715 11.5714 8.35715H10.0714C9.95357 8.35715 9.85714 8.45357 9.85714 8.57143V17.1429C9.85714 17.2607 9.95357 17.3571 10.0714 17.3571ZM14.1429 17.3571H15.6429C15.7607 17.3571 15.8571 17.2607 15.8571 17.1429V10.6607C15.8571 10.5429 15.7607 10.4464 15.6429 10.4464H14.1429C14.025 10.4464 13.9286 10.5429 13.9286 10.6607V17.1429C13.9286 17.2607 14.025 17.3571 14.1429 17.3571ZM18.2143 17.3571H19.7143C19.8321 17.3571 19.9286 17.2607 19.9286 17.1429V6.42857C19.9286 6.31072 19.8321 6.21429 19.7143 6.21429H18.2143C18.0964 6.21429 18 6.31072 18 6.42857V17.1429C18 17.2607 18.0964 17.3571 18.2143 17.3571Z"
          fill="currentColor"/>
</svg>
