<svg width="24" height="24" viewBox="0 0 24 24" fill="none" xmlns="http://www.w3.org/2000/svg">
    <path d="M10.9524 2.61214V0H12.0476V2.61214H10.9524ZM10.9524 23V20.389H12.0476V23H10.9524ZM20.389
    12.0476V10.9524H23V12.0476H20.389ZM0 12.0476V10.9524H2.61214V12.0476H0ZM18.4175 5.3579L17.6421
    4.58248L19.2214 2.9911L20.01 3.77857L18.4175 5.3579ZM3.77857 20.01L2.99 19.2225L4.58248 17.6432L5.3579
    18.4175L3.77857 20.01ZM19.2214 20.01L17.6421 18.4186L18.4164 17.6432L20.0089 19.2225L19.2214 20.01ZM4.58357
    5.3579L2.99 3.77857L3.77748 2.99L5.35681 4.58248L4.58357 5.3579ZM11.5055 16.9762C9.98529 16.9762 8.69144
    16.4443 7.62395 15.3804C6.55646 14.3166 6.02308 13.0249 6.02381 11.5055C6.02454 9.98602 6.55646 8.69181
    7.61957 7.62286C8.68268 6.5539 9.97433 6.02089 11.4945 6.02381C13.0147 6.02673 14.3086 6.55865 15.376
    7.61957C16.4435 8.68049 16.9769 9.97214 16.9762 11.4945C16.9755 13.0169 16.4435 14.3107 15.3804 15.376C14.3173
    16.4413 13.0257 16.9747 11.5055 16.9762ZM11.5 15.881C12.723 15.881 13.7591 15.4567 14.6083 14.6083C15.4575
    13.7598 15.8817 12.7237 15.881 11.5C15.8802 10.2763 15.456 9.24016 14.6083 8.39171C13.7606 7.54327 12.7245
    7.11905 11.5 7.11905C10.2755 7.11905 9.23943 7.54363 8.39171 8.39281C7.544 9.24198 7.11978 10.2777 7.11905
    11.5C7.11832 12.7223 7.5429 13.7584 8.39281 14.6083C9.24271 15.4582 10.2784 15.8824 11.5 15.881Z"
          fill="currentColor"/>
</svg>
